<svg width="60" height="60" viewBox="0 0 60 60" fill="none" xmlns="http://www.w3.org/2000/svg">
<g clip-path="url(#clip0_16_78)">
<path d="M10.5528 46.4003C9.71283 46.4003 8.90533 46.61 8.18893 47.0036C4.41513 42.166 2.34375 36.1565 2.34375 30C2.34375 14.7501 14.7501 2.34375 30 2.34375C31.8539 2.34375 33.707 2.52823 35.5078 2.89215C36.1414 3.02032 36.7603 2.61017 36.8884 1.97571C37.0166 1.34125 36.6064 0.723267 35.972 0.594635C34.0187 0.200043 32.0096 0 30 0C21.9868 0 14.453 3.12057 8.78677 8.78677C3.12057 14.453 0 21.9868 0 30C0 36.7406 2.28882 43.3186 6.45584 48.5921C5.91934 49.3936 5.63095 50.3357 5.63095 51.3222C5.63095 52.6369 6.14319 53.8728 7.07291 54.8021C8.00217 55.7318 9.23813 56.244 10.5528 56.244C11.8675 56.244 13.1035 55.7318 14.0332 54.8021C14.9629 53.8728 15.4747 52.6364 15.4747 51.3217C15.4747 50.0075 14.9629 48.7711 14.0332 47.8418C13.1035 46.9121 11.8675 46.4003 10.5528 46.4003ZM12.3756 53.145C11.889 53.632 11.2413 53.9003 10.5528 53.9003C9.86435 53.9003 9.21707 53.632 8.73001 53.145C8.24295 52.6579 7.9747 52.0107 7.9747 51.3222C7.9747 50.6332 8.24295 49.986 8.73001 49.4989C9.21661 49.0118 9.86435 48.744 10.5528 48.744C11.2413 48.744 11.8886 49.0123 12.3756 49.4989C12.8627 49.986 13.131 50.6332 13.131 51.3222C13.131 52.0107 12.8627 52.6579 12.3756 53.145Z" fill="#FEE600"/>
<path d="M53.5432 11.4066C54.8172 9.49542 54.6126 6.88251 52.9276 5.19748C51.9978 4.26822 50.7619 3.75598 49.4472 3.75598C48.1325 3.75598 46.8965 4.26822 45.9668 5.19748C45.0371 6.1272 44.5253 7.36316 44.5253 8.67786C44.5253 9.99255 45.0371 11.2285 45.9668 12.1582C46.8965 13.088 48.1325 13.5997 49.4472 13.5997C50.2872 13.5997 51.0947 13.3901 51.8111 12.9964C55.5849 17.8345 57.6563 23.8436 57.6563 30C57.6563 45.25 45.2499 57.6563 30 57.6563C28.1644 57.6563 26.3287 57.4755 24.5448 57.1184C23.9104 56.9916 23.2928 57.4031 23.1656 58.0376C23.0388 58.6725 23.4503 59.2896 24.0848 59.4168C26.0197 59.8036 28.0101 60 30 60C38.0132 60 45.547 56.8795 51.2132 51.2133C56.8794 45.5471 60 38.0132 60 30C60 23.259 57.7107 16.6805 53.5432 11.4066ZM47.6244 10.5011C47.1373 10.0141 46.8691 9.36679 46.8691 8.67786C46.8691 7.98938 47.1373 7.3421 47.6244 6.85504C48.111 6.36798 48.7587 6.09973 49.4472 6.09973C50.1357 6.09973 50.7834 6.36798 51.2705 6.85504C52.2752 7.86029 52.2752 9.49588 51.2705 10.5011C50.7834 10.9877 50.1357 11.256 49.4472 11.256C48.7582 11.256 48.111 10.9877 47.6244 10.5011Z" fill="#FEE600"/>
<path d="M25.1642 50.1562C25.1642 50.8035 25.6892 51.3281 26.3361 51.3281H33.6635C34.3108 51.3281 34.8354 50.8035 34.8354 50.1562V47.8844C36.3762 47.4696 37.8493 46.859 39.2336 46.0616L40.8376 47.6656C41.0573 47.8853 41.3553 48.0089 41.6666 48.0089C41.9769 48.0089 42.2754 47.8853 42.4951 47.6651L47.6743 42.4823C48.1316 42.0245 48.1316 41.2825 47.6743 40.8252L46.0721 39.223C46.8695 37.8387 47.4802 36.3657 47.8949 34.8248H50.1581C50.8054 34.8248 51.33 34.3002 51.33 33.653V26.3255C51.33 25.6783 50.8054 25.1537 50.1581 25.1537H47.8944C47.4797 23.6133 46.8695 22.1402 46.0721 20.7559L47.6656 19.1624C47.8853 18.9427 48.0089 18.6443 48.0089 18.3334C48.0084 18.0226 47.8848 17.7242 47.6651 17.5044L42.4818 12.3253C42.0245 11.868 41.2825 11.868 40.8247 12.3257L39.2336 13.9174C37.8493 13.12 36.3762 12.5093 34.8354 12.0946V9.84375C34.8354 9.19647 34.3108 8.67188 33.6635 8.67188H26.3361C25.6892 8.67188 25.1642 9.19647 25.1642 9.84375V12.095C23.6238 12.5093 22.1507 13.12 20.7664 13.9174L19.1748 12.3257C18.7175 11.8684 17.9755 11.868 17.5177 12.3253L12.3349 17.5049C12.1147 17.7246 11.9911 18.0226 11.9911 18.3334C11.9911 18.6443 12.1147 18.9427 12.3344 19.1624L13.9279 20.7559C13.1305 22.1402 12.5198 23.6128 12.1051 25.1537H9.84604C9.19876 25.1537 8.67417 25.6783 8.67417 26.3251L8.67005 33.6525C8.66959 33.9633 8.79318 34.2618 9.01291 34.4815C9.23264 34.7012 9.53064 34.8248 9.84192 34.8248H12.1051C12.5198 36.3657 13.1305 37.8387 13.9279 39.223L12.3257 40.8252C11.8684 41.2825 11.868 42.0245 12.3257 42.4823L17.5049 47.6651C17.7246 47.8848 18.0226 48.0089 18.3334 48.0089H18.3339C18.6447 48.0089 18.9427 47.8853 19.1624 47.6656L20.766 46.0616C22.1507 46.859 23.6238 47.4696 25.1642 47.8844V50.1562ZM21.2256 43.597C20.7619 43.2971 20.1517 43.3621 19.7607 43.7526L18.3339 45.1794L14.8114 41.6542L16.2369 40.2283C16.6274 39.8378 16.6924 39.2276 16.3925 38.7639C15.33 37.1196 14.583 35.3174 14.1728 33.4067C14.0566 32.867 13.5796 32.4811 13.027 32.4811H11.0143L11.017 27.4974H13.027C13.5796 27.4974 14.0566 27.112 14.1728 26.5718C14.583 24.6616 15.33 22.8593 16.3925 21.2151C16.6924 20.7513 16.6274 20.1411 16.2369 19.7507L14.8206 18.3339L18.3458 14.8114L19.7607 16.2268C20.1517 16.6173 20.7614 16.6818 21.2256 16.3824C22.8694 15.32 24.6716 14.5729 26.5823 14.1628C27.122 14.0465 27.5079 13.569 27.5079 13.017V11.0156H32.4916V13.0165C32.4916 13.569 32.877 14.0465 33.4172 14.1623C35.3275 14.5729 37.1301 15.3195 38.774 16.382C39.2377 16.6818 39.8479 16.6173 40.2383 16.2263L41.6537 14.8114L45.179 18.3339L43.7627 19.7502C43.3717 20.1411 43.3072 20.7513 43.607 21.2151C44.6695 22.8593 45.4161 24.6616 45.8267 26.5718C45.9425 27.112 46.42 27.4974 46.9725 27.4974H48.9862V32.4811H46.9725C46.42 32.4811 45.943 32.867 45.8267 33.4067C45.4166 35.3169 44.6695 37.1196 43.607 38.7634C43.3072 39.2276 43.3722 39.8378 43.7627 40.2283L45.1881 41.6537L41.6656 45.179L40.2388 43.7526C39.8479 43.3617 39.2377 43.2971 38.774 43.597C37.1297 44.6594 35.3275 45.406 33.4172 45.8167C32.877 45.9329 32.4916 46.4099 32.4916 46.9624V48.9844H27.5079V46.9624C27.5079 46.4104 27.122 45.9329 26.5823 45.8167C24.6721 45.4065 22.8699 44.6594 21.2256 43.597Z" fill="#FEE600"/>
<path d="M39.6831 30C39.6831 24.6606 35.3394 20.3169 30 20.3169C24.6606 20.3169 20.3169 24.6606 20.3169 30C20.3169 35.3393 24.6606 39.683 30 39.683C35.3394 39.683 39.6831 35.3393 39.6831 30ZM22.6607 30C22.6607 25.9529 25.9529 22.6606 30 22.6606C34.0471 22.6606 37.3393 25.9533 37.3393 30C37.3393 34.0466 34.0471 37.3393 30 37.3393C25.9529 37.3393 22.6607 34.0471 22.6607 30Z" fill="#FEE600"/>
<path d="M40.7904 4.43204C41.0989 4.43204 41.4011 4.30661 41.619 4.08871C41.8369 3.86945 41.9623 3.56732 41.9623 3.25879C41.9623 2.95209 41.8373 2.64951 41.619 2.43024C41.4011 2.21234 41.0989 2.08691 40.7904 2.08691C40.481 2.08691 40.1802 2.21234 39.9623 2.43024C39.744 2.64951 39.6185 2.95071 39.6185 3.25879C39.6185 3.56824 39.744 3.86945 39.9623 4.08871C40.1802 4.30661 40.481 4.43204 40.7904 4.43204Z" fill="#FEE600"/>
<path d="M19.2609 55.589C18.9528 55.589 18.6502 55.7144 18.4323 55.9323C18.2144 56.1502 18.089 56.4528 18.089 56.7609C18.089 57.0703 18.2144 57.3715 18.4323 57.5894C18.6502 57.8073 18.9528 57.9327 19.2609 57.9327C19.5689 57.9327 19.8715 57.8073 20.0894 57.5894C20.3073 57.3715 20.4327 57.0689 20.4327 56.7609C20.4327 56.4528 20.3073 56.1502 20.0894 55.9323C19.8715 55.7144 19.5689 55.589 19.2609 55.589Z" fill="#FEE600"/>
</g>
<defs>
<clipPath id="clip0_16_78">
<rect width="60" height="60" fill="white"/>
</clipPath>
</defs>
</svg>
